<?xml version="1.0" encoding="UTF-8"?>
<svg width="22px" height="23px" viewBox="0 0 22 23" version="1.1" xmlns="http://www.w3.org/2000/svg" xmlns:xlink="http://www.w3.org/1999/xlink">
    <title>whatsapp-seeklogo.com</title>
    <g id="Page-1" stroke="none" stroke-width="1" fill="none" fill-rule="evenodd">
        <g id="whatsapp-seeklogo.com" fill="#009949">
            <path d="M16.2635622,13.2543324 C15.9928213,13.1058393 14.6630599,12.3882378 14.4134994,12.2867099 C14.1641691,12.1856425 13.9820636,12.1329217 13.7877564,12.4020511 C13.5936794,12.6702595 13.0418376,13.271599 12.8746965,13.4495605 C12.7066346,13.6277522 12.5452491,13.6443282 12.2742779,13.4956049 C12.0042277,13.3478024 11.126622,13.0231896 10.108581,12.0447468 C9.31661783,11.2834031 8.79723734,10.3602135 8.64644203,10.0784219 C8.49587694,9.79616995 8.64552114,9.65251151 8.78871913,9.52059439 C8.91718292,9.40133947 9.07649644,9.20841356 9.2203851,9.05278359 C9.36404353,8.89715362 9.41469234,8.78411469 9.51322729,8.60339054 C9.61199247,8.42289661 9.57216409,8.26012976 9.50839263,8.11969443 C9.44439096,7.97948933 8.94388866,6.602072 8.73484722,6.04148179 C8.52580578,5.48112181 8.29305149,5.56446212 8.13212641,5.55824613 C7.97120134,5.5527208 7.78840519,5.52233152 7.60445793,5.51565509 C7.42051067,5.50874843 7.11915027,5.56653411 6.85623692,5.8329008 C6.59332357,6.09926748 5.8561532,6.73928422 5.80527417,8.0962118 C5.75462537,9.4522185 6.69323985,10.8001674 6.82400586,10.9891796 C6.95500209,11.1784219 8.61651319,14.1188154 11.3773336,15.3279406 C14.1388447,16.5368355 14.1533487,16.1682503 14.6598368,16.1410841 C15.1667853,16.1143784 16.3158225,15.53491 16.5699874,14.9001884 C16.8239221,14.2654667 16.8441817,13.7133947 16.7797195,13.5959816 C16.7150272,13.4785684 16.5340728,13.4021348 16.2635622,13.2543324 Z M11.1996023,19.7910213 C9.37371285,19.7910213 7.67306404,19.2433236 6.25328589,18.3047091 L2.79811637,19.4106949 L3.92113855,16.0717874 C2.8448514,14.5891586 2.20897865,12.7681038 2.20897865,10.8001674 C2.20897865,5.84233989 6.24223524,1.80885308 11.1996023,1.80885308 C16.1574299,1.80885308 20.1906865,5.84233989 20.1906865,10.8001674 C20.1906865,15.7577648 16.1574299,19.7910213 11.1996023,19.7910213 Z M11.1996023,0 C5.23501465,0 0.399665132,4.8351193 0.399665132,10.8001674 C0.399665132,12.8406237 0.965780661,14.7491628 1.94928841,16.3772918 L-6.64553757e-16,22.1715153 L5.97932189,20.2572206 C7.52687317,21.112725 9.30625785,21.6005651 11.1996023,21.6005651 C17.1648807,21.6005651 22,16.7647551 22,10.8001674 C22,4.8351193 17.1648807,0 11.1996023,0 L11.1996023,0 Z" id="Fill-2"></path>
        </g>
    </g>
</svg>